paper_minjerk_fatigue_10cycle_first
version=1
nRows=353
nColumns=3
inDegrees=yes
endheader
time	r_shoulder_elev	r_elbow_flex
9.9900	20.000000	30.918398
10.0000	20.000000	30.441986
10.0100	20.000000	29.870136
10.0200	20.000000	29.174004
10.0300	20.000000	28.755279
10.0400	20.000000	28.153976
10.0500	20.000000	27.517655
10.0600	20.000000	26.885713
10.0700	20.000000	26.394467
10.0800	20.000000	25.811444
10.0900	20.000000	25.199867
10.1000	20.000000	24.589888
10.1100	20.000000	24.043995
10.1200	20.000000	23.580759
10.1300	20.000000	23.227507
10.1400	20.000000	22.882045
10.1500	20.000000	22.685472
10.1600	20.000000	22.495009
10.1700	20.000000	22.267501
10.1800	20.000000	22.157755
10.1900	20.000000	21.966708
10.2000	20.000000	21.845461
10.2100	20.000000	21.683152
10.2200	20.000000	21.437272
10.2300	20.000000	21.209145
10.2400	20.000000	20.805682
10.2500	20.000000	20.628708
10.2600	20.000000	20.427013
10.2700	20.000000	20.238823
10.2800	20.000000	19.923927
10.2900	20.000000	19.931734
10.3000	20.000000	19.951898
10.3100	20.000000	19.866393
10.3200	20.000000	19.925783
10.3300	20.000000	20.048267
10.3400	20.000000	20.135329
10.3500	20.000000	20.260195
10.3600	20.000000	20.295000
10.3700	20.000000	20.340532
10.3800	20.000000	20.275780
10.3900	20.000000	20.000000
10.4000	20.000000	20.000000
10.4100	20.000000	20.000000
10.4200	20.000000	20.000000
10.4300	20.000000	20.000000
10.4400	20.000000	20.000000
10.4500	20.000000	20.000000
10.4600	20.000000	20.000000
10.4700	20.000000	20.000000
10.4800	20.000000	20.000000
10.4900	20.000000	20.000000
10.5000	20.000000	20.000000
10.5100	20.000000	20.000000
10.5200	20.000000	20.000000
10.5300	20.000000	20.000000
10.5400	20.000000	20.000000
10.5500	20.000000	20.000000
10.5600	20.000000	20.000000
10.5700	20.000000	20.000000
10.5800	20.000000	20.000000
10.5900	20.000000	19.858611
10.6000	20.000000	19.831568
10.6100	20.000000	19.558595
10.6200	20.000000	19.495936
10.6300	20.000000	19.468960
10.6400	20.000000	19.674480
10.6500	20.000000	19.651357
10.6600	20.000000	20.015078
10.6700	20.000000	20.040573
10.6800	20.000000	20.236196
10.6900	20.000000	20.543363
10.7000	20.000000	20.670030
10.7100	20.000000	20.762386
10.7200	20.000000	20.853162
10.7300	20.000000	20.665698
10.7400	20.000000	20.673046
10.7500	20.000000	20.444051
10.7600	20.000000	20.578056
10.7700	20.000000	20.469620
10.7800	20.000000	20.474045
10.7900	20.000000	20.528862
10.8000	20.000000	20.603790
10.8100	20.000000	20.901549
10.8200	20.000000	21.303725
10.8300	20.000000	21.618255
10.8400	20.000000	22.021809
10.8500	20.000000	22.259360
10.8600	20.000000	22.772447
10.8700	20.000000	22.999447
10.8800	20.000000	23.220440
10.8900	20.000000	23.519464
10.9000	20.000000	23.511327
10.9100	20.000000	23.902934
10.9200	20.000000	24.052379
10.9300	20.000000	24.120315
10.9400	20.000000	24.234267
10.9500	20.000000	24.516957
10.9600	20.000000	24.956830
10.9700	20.000000	25.175956
10.9800	20.000000	25.962184
10.9900	20.000000	26.600343
11.0000	20.000000	27.134202
11.0100	20.000000	27.763292
11.0200	20.000000	28.468227
11.0300	20.000000	29.090070
11.0400	20.000000	29.721532
11.0500	20.000000	30.116569
11.0600	20.000000	30.497061
11.0700	20.000000	30.932474
11.0800	20.000000	31.390759
11.0900	20.000000	31.928430
11.1000	20.000000	32.173416
11.1100	20.000000	32.588849
11.1200	20.000000	33.169602
11.1300	20.000000	33.692833
11.1400	20.000000	34.664430
11.1500	20.000000	35.297519
11.1600	20.000000	36.167468
11.1700	20.000000	36.981291
11.1800	20.000000	37.959550
11.1900	20.000000	38.999731
11.2000	20.000000	39.641822
11.2100	20.000000	40.373619
11.2200	20.000000	41.283995
11.2300	20.000000	41.897833
11.2400	20.000000	42.604295
11.2500	20.000000	43.249497
11.2600	20.000000	43.799710
11.2700	20.000000	44.332161
11.2800	20.000000	45.169063
11.2900	20.000000	46.024211
11.3000	20.000000	46.788042
11.3100	20.000000	47.650493
11.3200	20.000000	48.915079
11.3300	20.000000	49.815889
11.3400	20.000000	50.885681
11.3500	20.000000	51.987320
11.3600	20.000000	53.113604
11.3700	20.000000	54.009039
11.3800	20.000000	54.858660
11.3900	20.000000	55.806268
11.4000	20.000000	56.744860
11.4100	20.000000	57.424659
11.4200	20.000000	58.095892
11.4300	20.000000	58.671934
11.4400	20.000000	59.952351
11.4500	20.000000	60.307527
11.4600	20.000000	61.309961
11.4700	20.000000	62.269257
11.4800	20.000000	63.559407
11.4900	20.000000	64.545666
11.5000	20.000000	65.494637
11.5100	20.000000	66.798302
11.5200	20.000000	67.934614
11.5300	20.000000	68.907973
11.5400	20.000000	69.813301
11.5500	20.000000	70.786925
11.5600	20.000000	71.671312
11.5700	20.000000	72.516534
11.5800	20.000000	73.225061
11.5900	20.000000	74.101482
11.6000	20.000000	74.697815
11.6100	20.000000	75.421838
11.6200	20.000000	76.378102
11.6300	20.000000	77.508150
11.6400	20.000000	78.300893
11.6500	20.000000	79.630854
11.6600	20.000000	80.519666
11.6700	20.000000	81.438773
11.6800	20.000000	82.540763
11.6900	20.000000	83.676347
11.7000	20.000000	84.500229
11.7100	20.000000	85.746528
11.7200	20.000000	86.222462
11.7300	20.000000	87.129695
11.7400	20.000000	87.890325
11.7500	20.000000	88.380617
11.7600	20.000000	88.929178
11.7700	20.000000	89.654186
11.7800	20.000000	90.407817
11.7900	20.000000	91.201780
11.8000	20.000000	91.921208
11.8100	20.000000	92.631949
11.8200	20.000000	93.674753
11.8300	20.000000	94.523268
11.8400	20.000000	95.288579
11.8500	20.000000	96.323111
11.8600	20.000000	97.081172
11.8700	20.000000	98.041959
11.8800	20.000000	98.853919
11.8900	20.000000	99.438738
11.9000	20.000000	99.715498
11.9100	20.000000	100.190431
11.9200	20.000000	100.738407
11.9300	20.000000	101.202098
11.9400	20.000000	101.499472
11.9500	20.000000	102.011509
11.9600	20.000000	102.782472
11.9700	20.000000	103.141783
11.9800	20.000000	103.742821
11.9900	20.000000	104.474672
12.0000	20.000000	105.202167
12.0100	20.000000	105.707810
12.0200	20.000000	106.409262
12.0300	20.000000	106.877679
12.0400	20.000000	107.447288
12.0500	20.000000	108.057636
12.0600	20.000000	108.256277
12.0700	20.000000	108.415044
12.0800	20.000000	108.523529
12.0900	20.000000	108.753675
12.1000	20.000000	109.059640
12.1100	20.000000	109.093827
12.1200	20.000000	109.534274
12.1300	20.000000	109.544730
12.1400	20.000000	109.999725
12.1500	20.000000	110.593900
12.1600	20.000000	110.636164
12.1700	20.000000	111.375942
12.1800	20.000000	111.468910
12.1900	20.000000	111.994002
12.2000	20.000000	112.266730
12.2100	20.000000	112.567013
12.2200	20.000000	112.286374
12.2300	20.000000	112.450819
12.2400	20.000000	112.566127
12.2500	20.000000	112.568506
12.2600	20.000000	112.405802
12.2700	20.000000	112.417843
12.2800	20.000000	112.303291
12.2900	20.000000	112.416881
12.3000	20.000000	112.467597
12.3100	20.000000	112.729338
12.3200	20.000000	112.961009
12.3300	20.000000	113.269660
12.3400	20.000000	113.285368
12.3500	20.000000	113.519360
12.3600	20.000000	113.708433
12.3700	20.000000	113.761682
12.3800	20.000000	113.799527
12.3900	20.000000	113.588834
12.4000	20.000000	113.659778
12.4100	20.000000	113.364666
12.4200	20.000000	113.174736
12.4300	20.000000	113.333333
12.4400	20.000000	113.333333
12.4500	20.000000	113.333333
12.4600	20.000000	113.333333
12.4700	20.000000	113.333333
12.4800	20.000000	113.333333
12.4900	20.000000	113.333333
12.5000	20.000000	113.333333
12.5100	20.000000	113.333333
12.5200	20.000000	113.333333
12.5300	20.000000	113.333333
12.5400	20.000000	113.333333
12.5500	20.000000	113.333333
12.5600	20.000000	113.333333
12.5700	20.000000	113.333333
12.5800	20.000000	113.333333
12.5900	20.000000	113.333333
12.6000	20.000000	113.333333
12.6100	20.000000	113.333333
12.6200	20.000000	113.333333
12.6300	20.000000	112.683377
12.6400	20.000000	113.027025
12.6500	20.000000	113.023445
12.6600	20.000000	113.317469
12.6700	20.000000	113.408047
12.6800	20.000000	113.374509
12.6900	20.000000	113.559976
12.7000	20.000000	113.805656
12.7100	20.000000	113.639025
12.7200	20.000000	113.512131
12.7300	20.000000	113.434164
12.7400	20.000000	113.205204
12.7500	20.000000	112.853672
12.7600	20.000000	112.640340
12.7700	20.000000	112.354366
12.7800	20.000000	111.905084
12.7900	20.000000	112.023562
12.8000	20.000000	111.754576
12.8100	20.000000	111.877844
12.8200	20.000000	111.580068
12.8300	20.000000	111.499967
12.8400	20.000000	111.729165
12.8500	20.000000	111.367271
12.8600	20.000000	111.316195
12.8700	20.000000	111.213845
12.8800	20.000000	110.805679
12.8900	20.000000	110.267557
12.9000	20.000000	109.965721
12.9100	20.000000	109.378439
12.9200	20.000000	108.937975
12.9300	20.000000	108.267049
12.9400	20.000000	107.922137
12.9500	20.000000	106.896342
12.9600	20.000000	106.545743
12.9700	20.000000	105.976122
12.9800	20.000000	105.774511
12.9900	20.000000	105.343421
13.0000	20.000000	104.942658
13.0100	20.000000	104.373615
13.0200	20.000000	103.913294
13.0300	20.000000	103.251623
13.0400	20.000000	103.007373
13.0500	20.000000	102.177812
13.0600	20.000000	101.303758
13.0700	20.000000	100.551297
13.0800	20.000000	99.606969
13.0900	20.000000	98.674529
13.1000	20.000000	97.457586
13.1100	20.000000	96.613499
13.1200	20.000000	95.809790
13.1300	20.000000	94.981684
13.1400	20.000000	94.248738
13.1500	20.000000	93.300779
13.1600	20.000000	92.687214
13.1700	20.000000	92.168794
13.1800	20.000000	91.266388
13.1900	20.000000	90.483871
13.2000	20.000000	89.525475
13.2100	20.000000	88.653588
13.2200	20.000000	87.722799
13.2300	20.000000	86.441929
13.2400	20.000000	85.381901
13.2500	20.000000	83.962451
13.2600	20.000000	82.888152
13.2700	20.000000	81.713961
13.2800	20.000000	80.380839
13.2900	20.000000	79.452599
13.3000	20.000000	78.223483
13.3100	20.000000	77.217574
13.3200	20.000000	76.351959
13.3300	20.000000	75.626577
13.3400	20.000000	74.548598
13.3500	20.000000	73.673025
13.3600	20.000000	72.522402
13.3700	20.000000	71.556552
13.3800	20.000000	70.312497
13.3900	20.000000	69.183258
13.4000	20.000000	68.073440
13.4100	20.000000	66.693589
13.4200	20.000000	65.532709
13.4300	20.000000	64.067091
13.4400	20.000000	62.802663
13.4500	20.000000	61.741634
13.4600	20.000000	60.410413
13.4700	20.000000	59.258437
13.4800	20.000000	58.543693
13.4900	20.000000	57.511405
13.5000	20.000000	56.341655
13.5100	20.000000	55.657444
